<?xml version="1.0" standalone="no"?>
<!DOCTYPE svg PUBLIC "-//W3C//DTD SVG 20010904//EN"
 "http://www.w3.org/TR/2001/REC-SVG-20010904/DTD/svg10.dtd">
<svg version="1.0" xmlns="http://www.w3.org/2000/svg"
 width="150.000000pt" height="150.000000pt" viewBox="0 0 150.000000 150.000000"
 preserveAspectRatio="xMidYMid meet">
<metadata>
Created by potrace 1.15, written by Peter Selinger 2001-2017
</metadata>
<g transform="translate(0.000000,150.000000) scale(0.100000,-0.100000)"
fill="#000000" stroke="none">
<path d="M0 750 l0 -750 750 0 750 0 0 750 0 750 -750 0 -750 0 0 -750z m647
560 c42 -19 72 -60 87 -122 l6 -28 -96 0 c-91 0 -98 2 -120 25 -20 21 -27 24
-44 15 -34 -18 -42 -48 -38 -137 3 -75 6 -87 27 -104 14 -11 36 -19 50 -17 21
2 27 9 29 36 3 30 1 32 -27 32 -31 0 -31 0 -31 55 l0 55 125 0 125 0 0 -134 0
-135 -57 -12 c-82 -18 -259 -16 -303 3 -55 24 -101 68 -126 123 -60 127 -4
301 111 345 84 33 207 32 282 0z m523 8 c95 -29 150 -114 150 -234 0 -131 -68
-219 -191 -250 -54 -13 -75 -14 -121 -5 -76 16 -140 59 -175 118 -25 43 -28
57 -28 139 0 83 2 94 30 140 61 98 197 135 335 92z m-503 -624 c48 -36 66 -70
71 -131 3 -46 -1 -67 -20 -102 -35 -68 -64 -84 -161 -91 l-82 -5 -3 -77 -3
-78 -99 0 -100 0 0 256 0 256 185 -4 c166 -3 187 -6 212 -24z m540 0 c55 -41
68 -70 68 -148 0 -64 -3 -77 -28 -109 -39 -51 -60 -60 -152 -67 l-80 -5 -3
-77 -3 -78 -99 0 -100 0 0 256 0 256 185 -4 c166 -3 187 -6 212 -24z"/>
<path d="M1029 1194 c-19 -23 -25 -165 -9 -204 20 -48 63 -50 81 -3 13 35 11
164 -4 193 -15 30 -49 37 -68 14z"/>
<path d="M399 504 c-22 -22 -30 -24 -47 -15 -36 19 -44 13 -26 -19 18 -29 18
-30 -5 -61 l-24 -32 42 7 c41 6 43 5 54 -24 12 -32 38 -41 35 -12 -4 48 2 60
35 66 30 7 31 8 13 21 -11 8 -25 15 -32 15 -8 0 -14 16 -16 40 l-3 41 -26 -27z"/>
<path d="M942 506 c-20 -26 -25 -28 -48 -18 -39 18 -48 14 -30 -13 21 -32 20
-44 -6 -73 l-23 -25 43 7 c41 6 43 5 59 -29 15 -31 18 -33 24 -18 4 10 8 30 8
46 1 19 6 27 19 27 9 0 23 4 31 9 11 7 7 13 -17 25 -25 13 -31 23 -34 53 l-3
38 -23 -29z"/>
</g>
</svg>
